<?xml version="1.0" encoding="UTF-8" standalone="no"?>
<!DOCTYPE svg PUBLIC "-//W3C//DTD SVG 1.1//EN" "http://www.w3.org/Graphics/SVG/1.1/DTD/svg11.dtd">
<svg width="100%" height="100%" viewBox="0 0 362 487" version="1.1" xmlns="http://www.w3.org/2000/svg" xmlns:xlink="http://www.w3.org/1999/xlink" xml:space="preserve" xmlns:serif="http://www.serif.com/" style="fill-rule:evenodd;clip-rule:evenodd;stroke-linejoin:round;stroke-miterlimit:2;">
    <g id="ArtBoard1" transform="matrix(0.778366,0,0,0.946429,-298.425,-1322.38)">
        <rect x="383.399" y="1397.23" width="464.516" height="514.132" style="fill:none;"/>
        <g transform="matrix(1.28474,0,0,1.0566,-196.011,-94.0803)">
            <g transform="matrix(-0.65628,-8.03711e-17,1.34831e-16,-1.10098,977.616,3304.02)">
                <path d="M546.626,1295.51C578.896,1403.12 652.538,1499.14 756.828,1586.6C815.102,1635.47 676.286,1673.49 622.884,1685.54C502.704,1712.66 154.943,1700.88 336.425,1586.6C425.694,1507.49 501.211,1415.54 546.626,1295.51Z" style="fill:rgb(105,186,201);"/>
            </g>
            <g transform="matrix(0.528625,0,0,0.528625,205.752,1013.88)">
                <g transform="matrix(490.527,0,0,490.527,505.34,1073.38)">
                    <path d="M0.709,-0.179L0.672,-0.13L0.691,-0.104L0.675,-0.094L0.672,-0.068L0.666,-0.053C0.666,-0.042 0.664,-0.033 0.661,-0.026L0.672,-0.016L0.666,0.008L0.671,0.029L0.668,0.037L0.679,0.048L0.666,0.062L0.671,0.081L0.664,0.097C0.669,0.11 0.671,0.12 0.671,0.129L0.671,0.133L0.683,0.154C0.682,0.178 0.671,0.19 0.652,0.19C0.643,0.19 0.632,0.182 0.618,0.165L0.614,0.142C0.605,0.131 0.6,0.122 0.599,0.116L0.588,0.091L0.588,0.078L0.583,0.07L0.583,0.066L0.572,0.062L0.574,0.059C0.574,0.049 0.575,0.041 0.578,0.036L0.578,0.027C0.578,0.022 0.579,0.017 0.58,0.012L0.577,0.002L0.567,-0.002C0.578,-0.009 0.584,-0.016 0.584,-0.023C0.584,-0.024 0.584,-0.027 0.583,-0.03C0.582,-0.033 0.581,-0.036 0.581,-0.037L0.577,-0.07L0.582,-0.082C0.561,-0.075 0.542,-0.072 0.526,-0.072C0.525,-0.072 0.524,-0.072 0.522,-0.073L0.517,-0.073C0.516,-0.073 0.513,-0.072 0.509,-0.071L0.494,-0.057L0.455,-0.05L0.436,-0.04L0.413,-0.04L0.396,-0.032L0.375,-0.033L0.359,-0.024L0.349,-0.026C0.341,-0.023 0.33,-0.02 0.315,-0.018C0.304,-0.017 0.297,-0.014 0.294,-0.01C0.287,-0.012 0.282,-0.015 0.279,-0.02C0.277,-0.019 0.274,-0.019 0.269,-0.019L0.247,-0.008L0.232,-0.019C0.223,-0.019 0.209,-0.021 0.192,-0.025L0.184,-0.02L0.166,-0.028L0.138,-0.028L0.123,-0.041L0.1,-0.05L0.055,-0.094L0.049,-0.123L0.035,-0.142L0.041,-0.157C0.041,-0.158 0.041,-0.16 0.042,-0.163L0.042,-0.169L0.031,-0.184L0.045,-0.208L0.05,-0.209L0.074,-0.249L0.074,-0.258L0.08,-0.26L0.083,-0.263L0.089,-0.26C0.096,-0.261 0.1,-0.268 0.101,-0.282L0.108,-0.279C0.111,-0.284 0.117,-0.291 0.126,-0.298L0.123,-0.302L0.126,-0.309L0.138,-0.318L0.14,-0.319L0.152,-0.34L0.159,-0.335L0.168,-0.335L0.18,-0.355L0.205,-0.36L0.214,-0.369C0.213,-0.37 0.212,-0.372 0.212,-0.373C0.212,-0.373 0.213,-0.376 0.214,-0.381L0.225,-0.383L0.231,-0.388L0.235,-0.383L0.242,-0.389L0.245,-0.398L0.266,-0.4L0.283,-0.415L0.302,-0.418L0.309,-0.425L0.319,-0.422L0.325,-0.432L0.333,-0.425C0.334,-0.429 0.334,-0.431 0.334,-0.431C0.334,-0.438 0.338,-0.442 0.347,-0.444C0.356,-0.453 0.366,-0.458 0.378,-0.458L0.396,-0.458L0.399,-0.46L0.416,-0.475L0.426,-0.473L0.443,-0.482L0.45,-0.482C0.459,-0.485 0.466,-0.487 0.471,-0.487L0.489,-0.497L0.499,-0.494L0.506,-0.494L0.511,-0.503L0.535,-0.501L0.542,-0.502L0.547,-0.513L0.578,-0.5L0.596,-0.5L0.617,-0.485C0.629,-0.48 0.641,-0.474 0.654,-0.466C0.653,-0.434 0.632,-0.415 0.591,-0.41L0.565,-0.423L0.557,-0.42L0.54,-0.426L0.53,-0.42L0.511,-0.425L0.479,-0.409L0.465,-0.417L0.449,-0.412C0.443,-0.411 0.439,-0.408 0.436,-0.405C0.424,-0.395 0.412,-0.39 0.399,-0.39L0.392,-0.39C0.364,-0.373 0.341,-0.363 0.323,-0.358L0.319,-0.348L0.307,-0.348L0.299,-0.336L0.283,-0.334C0.272,-0.325 0.261,-0.317 0.248,-0.311C0.242,-0.308 0.236,-0.306 0.23,-0.303L0.203,-0.279L0.188,-0.268L0.171,-0.247L0.145,-0.226L0.145,-0.207L0.137,-0.2L0.121,-0.163L0.121,-0.15C0.132,-0.139 0.139,-0.127 0.141,-0.114L0.144,-0.111L0.167,-0.1L0.191,-0.094L0.223,-0.095L0.263,-0.087L0.27,-0.088L0.278,-0.087L0.333,-0.091L0.336,-0.092C0.343,-0.094 0.356,-0.097 0.376,-0.1L0.393,-0.106L0.435,-0.109L0.501,-0.124C0.512,-0.131 0.526,-0.136 0.541,-0.137L0.555,-0.136C0.566,-0.13 0.572,-0.124 0.573,-0.118L0.583,-0.14L0.573,-0.131L0.573,-0.149L0.583,-0.151L0.595,-0.167C0.593,-0.169 0.591,-0.173 0.588,-0.178C0.588,-0.181 0.588,-0.185 0.59,-0.189C0.591,-0.192 0.591,-0.194 0.591,-0.195C0.591,-0.202 0.587,-0.214 0.58,-0.231C0.591,-0.238 0.603,-0.241 0.616,-0.241C0.628,-0.241 0.639,-0.239 0.649,-0.234L0.658,-0.225C0.669,-0.22 0.677,-0.215 0.683,-0.208L0.709,-0.179Z" style="fill:white;fill-rule:nonzero;"/>
                </g>
                <g transform="matrix(490.527,0,0,490.527,755.356,1148.48)">
                    <path d="M0.703,-0.487L0.678,-0.44L0.655,-0.437L0.624,-0.437L0.607,-0.434L0.594,-0.437L0.531,-0.432L0.513,-0.436L0.509,-0.435C0.502,-0.432 0.491,-0.43 0.475,-0.427L0.439,-0.427L0.431,-0.43L0.428,-0.43C0.421,-0.43 0.412,-0.428 0.399,-0.425C0.389,-0.422 0.377,-0.421 0.362,-0.421L0.346,-0.425L0.343,-0.413L0.331,-0.413L0.328,-0.366L0.333,-0.358L0.331,-0.343L0.331,-0.317C0.331,-0.29 0.328,-0.271 0.323,-0.262L0.331,-0.251L0.325,-0.222L0.331,-0.214L0.32,-0.198L0.32,-0.19L0.314,-0.179L0.318,-0.157L0.315,-0.115L0.309,-0.096C0.31,-0.095 0.31,-0.094 0.31,-0.091C0.31,-0.092 0.309,-0.088 0.307,-0.078C0.307,-0.077 0.307,-0.076 0.308,-0.074L0.308,-0.069C0.308,-0.062 0.306,-0.055 0.301,-0.048L0.304,-0.034C0.304,-0.029 0.304,-0.026 0.303,-0.025L0.302,-0.022C0.301,-0.018 0.3,-0.014 0.3,-0.01C0.3,0.003 0.301,0.013 0.304,0.022C0.289,0.025 0.281,0.026 0.279,0.026C0.273,0.026 0.268,0.025 0.264,0.024L0.262,0.023C0.245,0.019 0.236,0.003 0.236,-0.025C0.237,-0.028 0.237,-0.033 0.237,-0.039C0.237,-0.044 0.236,-0.052 0.235,-0.062C0.234,-0.071 0.233,-0.078 0.233,-0.083C0.233,-0.09 0.234,-0.095 0.236,-0.1L0.24,-0.141C0.235,-0.148 0.232,-0.154 0.232,-0.159C0.232,-0.16 0.233,-0.163 0.234,-0.167C0.231,-0.172 0.23,-0.176 0.23,-0.179C0.23,-0.184 0.232,-0.189 0.235,-0.192C0.235,-0.198 0.238,-0.206 0.243,-0.217C0.242,-0.222 0.241,-0.228 0.241,-0.234C0.246,-0.234 0.248,-0.236 0.248,-0.241C0.248,-0.242 0.247,-0.245 0.246,-0.248C0.245,-0.251 0.244,-0.254 0.244,-0.257L0.247,-0.253L0.243,-0.262C0.243,-0.275 0.245,-0.286 0.248,-0.295L0.248,-0.324L0.243,-0.345L0.248,-0.384L0.243,-0.413L0.245,-0.423L0.23,-0.422L0.219,-0.416L0.211,-0.417L0.211,-0.413C0.197,-0.413 0.183,-0.414 0.17,-0.416L0.167,-0.408L0.128,-0.421L0.076,-0.422L0.043,-0.413C0.016,-0.436 0.003,-0.452 0.003,-0.462C0.003,-0.468 0.004,-0.474 0.006,-0.48L0.006,-0.477L0.028,-0.496L0.047,-0.495L0.114,-0.483L0.131,-0.488L0.182,-0.487L0.222,-0.482L0.248,-0.492L0.257,-0.518L0.297,-0.508L0.299,-0.51L0.301,-0.507L0.315,-0.49L0.319,-0.489L0.333,-0.494L0.362,-0.487C0.391,-0.492 0.408,-0.495 0.413,-0.495C0.421,-0.495 0.429,-0.493 0.438,-0.49C0.44,-0.49 0.444,-0.49 0.45,-0.489C0.459,-0.49 0.465,-0.491 0.468,-0.491L0.475,-0.491L0.509,-0.495L0.538,-0.49L0.542,-0.488L0.557,-0.493L0.578,-0.488L0.628,-0.49L0.65,-0.487L0.703,-0.487Z" style="fill:white;fill-rule:nonzero;"/>
                </g>
            </g>
        </g>
    </g>
</svg>
