<?xml version="1.0" encoding="UTF-8" standalone="no"?>
<!DOCTYPE svg PUBLIC "-//W3C//DTD SVG 1.1//EN" "http://www.w3.org/Graphics/SVG/1.1/DTD/svg11.dtd">
<svg width="100%" height="100%" viewBox="0 0 550 550" version="1.1" xmlns="http://www.w3.org/2000/svg" xmlns:xlink="http://www.w3.org/1999/xlink" xml:space="preserve" xmlns:serif="http://www.serif.com/" style="fill-rule:evenodd;clip-rule:evenodd;stroke-linecap:round;stroke-linejoin:round;stroke-miterlimit:1.5;">
    <g transform="matrix(1,0,0,1,-255.453,-1628.47)">
        <g id="groupglobe" transform="matrix(0.566962,0,0,0.806493,-120.178,1113.98)">
            <rect x="662.532" y="637.939" width="970.082" height="681.965" style="fill:none;"/>
            <g transform="matrix(1.76379,0,0,1.23994,423.007,-611.46)">
                <g id="Ebene4">
                    <g transform="matrix(1,0,0,1.06186,9.2586,-119.642)">
                        <ellipse cx="403.718" cy="1306.7" rx="209.547" ry="197.175" style="fill:rgb(105,186,201);"/>
                    </g>
                    <g id="Ebene5">
                    </g>
                    <path d="M406.383,1095.04C195.072,1117.3 211.413,1519.08 494.677,1368.44C509.416,1360.6 434.129,1312.99 430.805,1305.61C413.068,1266.28 461.147,1230.94 482.284,1240.7C657.886,1321.74 533.685,1514.06 357.812,1466.94C306.838,1453.29 254.974,1403.26 218.369,1336.32C182.932,1262.33 186.885,1168.96 298.642,1099.26C343.431,1064.76 400.541,1066.86 406.383,1095.04Z" style="fill:rgb(115,105,105);stroke:rgb(115,105,105);stroke-width:15.24px;"/>
                    <g transform="matrix(1,0,0,1,-7.83089,30.2878)">
                        <path d="M454.937,1067.36C320.675,1149.94 297.538,1368.67 365.643,1268.23C372.563,1258.03 377.341,1182.28 458.028,1129.82C460.542,1127.3 482.693,1151.96 500.796,1170.11C528.296,1197.68 561.762,1235.33 564.678,1241.24C619.368,1351.98 649.83,1261.64 617.858,1184.11C617.858,1184.11 498.066,1105.93 492.431,1100.33C486.795,1094.73 546.088,1079.51 546.11,1072.89C546.206,1045.01 484.784,1050.66 484.784,1050.66L454.937,1067.36Z" style="fill:rgb(115,105,105);stroke:rgb(115,105,105);stroke-width:15.24px;"/>
                    </g>
                </g>
                <g id="Ebene6">
                </g>
            </g>
        </g>
    </g>
</svg>
